HIERARCHY
ROOT Hips
{
  OFFSET 1.44925e-005 102.336 -0.101585
  CHANNELS 6 Xposition Yposition Zposition Zrotation Xrotation Yrotation
  JOINT LeftUpLeg
  {
    OFFSET 8.9458 -8.66707 0.101652
    CHANNELS 3 Zrotation Xrotation Yrotation
    JOINT LeftLeg
    {
      OFFSET 0 -44.4227 1.3727
      CHANNELS 3 Zrotation Xrotation Yrotation
      JOINT LeftFoot
      {
        OFFSET -0.253549 -42.0924 -1.46059
        CHANNELS 3 Zrotation Xrotation Yrotation
        JOINT LeftToes
        {
          OFFSET -0.04 -4.41509 8.4991
          CHANNELS 3 Zrotation Xrotation Yrotation
          End Site
          {
            OFFSET 0.08 -0.047448 9.77979
          }
        }
      }
    }
  }
  JOINT Spine
  {
    OFFSET 0 11.8905 0
    CHANNELS 3 Zrotation Xrotation Yrotation
    JOINT Spine1
    {
      OFFSET 0 25.6574 0.127663
      CHANNELS 3 Zrotation Xrotation Yrotation
      JOINT RightShoulder
      {
        OFFSET -8.99 -0.362252 -0.22
        CHANNELS 3 Zrotation Xrotation Yrotation
        JOINT RightArm
        {
          OFFSET -10.2827 -0.00338 0.322123
          CHANNELS 3 Zrotation Xrotation Yrotation
          JOINT RightForeArm
          {
            OFFSET -26.364 0.099144 -1.42434
            CHANNELS 3 Zrotation Xrotation Yrotation
            JOINT RightHand
            {
              OFFSET -22.0324 0.085362 1.02216
              CHANNELS 3 Zrotation Xrotation Yrotation
              End Site
              {
                OFFSET -13.3284 -0.6 1.50291
              }
            }
          }
        }
      }
      JOINT LeftShoulder1
      {
        OFFSET 8.99 -0.362252 -0.22
        CHANNELS 3 Zrotation Xrotation Yrotation
        JOINT LeftArm
        {
          OFFSET 10.2827 -0.00337999 0.322123
          CHANNELS 3 Zrotation Xrotation Yrotation
          JOINT LeftForeArm
          {
            OFFSET 26.2597 0.099144 -1.42434
            CHANNELS 3 Zrotation Xrotation Yrotation
            JOINT LeftHand
            {
              OFFSET 22.0902 0.085362 1.02216
              CHANNELS 3 Zrotation Xrotation Yrotation
              End Site
              {
                OFFSET 13.419 -0.6 1.50291
              }
            }
          }
        }
      }
      JOINT Head
      {
        OFFSET 0 8.73416 0.011341
        CHANNELS 3 Zrotation Xrotation Yrotation
        End Site
        {
          OFFSET -0.29 12.7742 2.51395
        }
      }
    }
  }
  JOINT RightUpLeg
  {
    OFFSET -8.9458 -8.66707 0.101652
    CHANNELS 3 Zrotation Xrotation Yrotation
    JOINT RightLeg
    {
      OFFSET 0 -44.4227 1.3727
      CHANNELS 3 Zrotation Xrotation Yrotation
      JOINT RightFoot
      {
        OFFSET 0.253549 -42.0924 -1.46059
        CHANNELS 3 Zrotation Xrotation Yrotation
        JOINT RightToes
        {
          OFFSET 0.04 -4.41509 8.4991
          CHANNELS 3 Zrotation Xrotation Yrotation
          End Site
          {
            OFFSET -0.08 -0.137448 9.77979
          }
        }
      }
    }
  }
}
MOTION
Frames:	19
Frame Time:	0.0333333
189.576 103.126 9.93073 -3.1175 -0.59937 -89.6229 -0.853404 0.793637 1.86401 0.00406953 8.45296 17.5 -2.09444 -10.2515 -0.00945828 -1.34284e-009 8.7522e-006 -1.47388e-008 1.25919 6.42155 0.00857763 -2.01413 -3.54688 0.429721 37.2811 1.75866 0.0496015 41.1808 -19.0313 4.7651 8.24675 40.2347 7.47282 -11.4216 9.34811 0.569794 -43.7271 3.55675 -3.56861 -28.2867 -13.5885 2.3707 -5.33962 36.8302 -13.383 5.82328 9.61819 -0.917488 0.265329 1.48095 -2.54818 -1.84241 1.96601 -5.10044 0.631901 9.85232 -13.3585 4.21427 -12.7922 -0.0102825 0.0462048 0.000530889 0.662642 
189.564 103.118 9.94325 -3.11762 -0.610476 -89.6237 -0.923386 0.771202 1.75394 0.0969996 8.51234 17.6102 -2.15384 -10.2751 -0.00945898 -1.34284e-009 8.7522e-006 -1.47388e-008 1.25786 6.41695 0.00230478 -2.03611 -3.54878 0.42813 37.2365 1.75866 0.0496015 41.2421 -19.0225 4.7695 8.25607 40.1722 7.46613 -11.4957 9.35681 0.431409 -43.6306 3.54765 -3.56857 -28.3606 -13.6012 2.39694 -5.29239 36.885 -13.4232 5.82328 9.61819 -0.917488 0.339024 1.51529 -2.5333 -1.87195 1.94724 -5.13456 0.644865 9.90808 -13.353 4.19425 -12.8229 -0.0102838 0.0462048 0.000530889 0.662642 
189.548 103.108 9.96573 -3.10785 -0.624336 -89.634 -1.02389 0.722246 1.59973 0.227005 8.60966 17.7633 -2.27433 -10.3213 -0.00946037 -1.34284e-009 8.7522e-006 -1.47388e-008 1.23405 6.40247 -0.00904406 -2.03257 -3.56846 0.416184 37.1853 1.75866 0.0512005 41.3111 -19.1056 4.80816 8.28749 40.2885 7.38418 -11.4225 9.37137 0.311376 -43.5945 3.54423 -3.56856 -28.376 -13.6831 2.41045 -5.31959 36.9756 -13.3679 5.82328 9.61819 -0.917488 0.198311 1.32116 -2.57035 -1.9134 1.91256 -5.17438 0.66035 9.97403 -13.3265 4.197 -12.8626 -0.0102854 0.0462048 0.000530889 0.662642 
189.542 103.105 9.9881 -3.10546 -0.629207 -89.6429 -1.07836 0.701011 1.52663 0.289398 8.65886 17.8314 -2.36982 -10.3533 -0.00946133 -1.34284e-009 8.7522e-006 -1.47388e-008 1.19933 6.41993 -0.00893826 -1.98463 -3.62265 0.406712 37.1325 1.75866 0.0578701 41.3452 -19.2699 4.84148 8.2945 40.5785 7.29217 -11.2239 9.37291 0.404985 -43.7585 3.55872 -3.56861 -28.2142 -13.7337 2.3732 -5.44516 36.9741 -13.2244 5.82328 9.61819 -0.917488 -0.501166 0.575017 -2.75583 -1.93765 1.91042 -5.19183 0.664648 9.97812 -13.2933 4.23113 -12.8765 -0.010286 0.0462048 0.000530889 0.662642 
189.54 103.107 10.0064 -3.11148 -0.619325 -89.6399 -1.07806 0.714436 1.5358 0.286352 8.64813 17.8198 -2.35708 -10.3531 -0.00946132 -1.34284e-009 8.7522e-006 -1.47388e-008 1.1864 6.45498 0.00126638 -1.93516 -3.66239 0.407123 37.0462 1.75866 0.0652015 41.3964 -19.3518 4.84928 8.30002 40.6305 7.26102 -11.281 9.36166 0.499344 -44.0046 3.58008 -3.5687 -27.9788 -13.6981 2.31509 -5.55332 36.8675 -13.1275 5.82328 9.61819 -0.917488 -1.40772 -0.343562 -3.06331 -1.9366 1.93857 -5.18781 0.663982 9.93749 -13.2823 4.24448 -12.8732 -0.0102858 0.0462048 0.000530889 0.662642 
189.537 103.107 10.0212 -3.10298 -0.592637 -89.6348 -1.04847 0.706603 1.56875 0.268176 8.6483 17.7949 -2.26105 -10.3477 -0.00946116 -1.34284e-009 8.7522e-006 -1.47388e-008 1.20216 6.4793 0.000301987 -1.92097 -3.69724 0.402513 36.982 1.75868 0.0717202 41.4515 -19.2662 4.86093 8.33781 40.412 7.2632 -11.5865 9.35539 0.396904 -44.1011 3.58826 -3.5682 -27.8845 -13.6527 2.31062 -5.56799 36.8011 -13.1303 5.82328 9.61819 -0.917488 -1.81594 -0.695169 -3.2916 -1.91545 1.94452 -5.17027 0.666679 9.91417 -13.2994 4.217 -12.8675 -0.0102856 0.0462048 0.000530889 0.662642 
189.536 103.107 10.0329 -3.07484 -0.557225 -89.6365 -1.00477 0.648695 1.60572 0.246932 8.70737 17.7669 -2.20098 -10.3724 -0.00946191 -1.34284e-009 8.7522e-006 -1.47388e-008 1.22903 6.55507 -0.0180939 -1.94644 -3.85739 0.385251 37.0481 1.7587 0.0752972 41.39 -19.1234 4.85456 8.3452 40.4043 7.27945 -11.6074 9.36139 0.320417 -43.9666 3.57536 -3.56369 -28.0089 -13.6373 2.39082 -5.53716 36.8709 -13.164 5.82328 9.61819 -0.917488 -1.61943 -0.39191 -3.30761 -1.88428 1.91392 -5.14254 0.668591 9.91798 -13.3305 4.19367 -12.8535 -0.010285 0.0462048 0.000530889 0.662642 
189.536 103.107 10.0415 -3.05169 -0.532089 -89.6306 -0.961439 0.588871 1.65017 0.212653 8.77678 17.7122 -2.22856 -10.4139 -0.00946316 -1.34284e-009 8.7522e-006 -1.47388e-008 1.26304 6.76697 -0.0374804 -2.01314 -4.2257 0.370941 37.2317 1.75873 0.0704591 41.1881 -19.0222 4.74966 8.27925 40.6194 7.35251 -11.2154 9.36882 0.456413 -43.7293 3.5506 -3.551 -28.2191 -13.5811 2.51231 -5.51121 36.9773 -13.1751 5.82328 9.61819 -0.917488 -1.30688 0.00928441 -3.20536 -1.85897 1.89138 -5.11432 0.66651 9.9118 -13.3626 4.20733 -12.836 -0.0102843 0.0462048 0.000530889 0.662642 
189.534 103.107 10.0489 -3.049 -0.530789 -89.6025 -0.947001 0.582838 1.67447 0.185053 8.77859 17.6592 -2.2584 -10.4239 -0.00946347 -1.34284e-009 8.7522e-006 -1.47388e-008 1.31301 7.06353 -0.0525268 -2.11964 -4.67736 0.366879 37.3965 1.75877 0.0574984 41.0018 -18.8763 4.55339 8.25227 40.3845 7.46742 -11.0379 9.37034 0.542422 -43.5508 3.52955 -3.5365 -28.3473 -13.4456 2.63086 -5.49539 36.9611 -13.2008 5.82328 9.61819 -0.917488 -1.13166 0.210879 -3.12109 -1.85966 1.89955 -5.11033 0.666158 9.89685 -13.3821 4.23303 -12.8343 -0.0102843 0.0462048 0.000530889 0.662642 
189.53 103.106 10.0581 -3.05249 -0.545839 -89.5688 -0.968829 0.614906 1.6583 0.183882 8.72033 17.652 -2.21193 -10.3943 -0.00946257 -1.34284e-009 8.7522e-006 -1.47388e-008 1.36716 7.29159 -0.0737913 -2.22907 -5.00972 0.359302 37.4765 1.7588 0.0455274 40.9413 -18.5969 4.38492 8.34765 39.5728 7.5486 -11.4301 9.36346 0.395372 -43.4726 3.51953 -3.52853 -28.3666 -13.304 2.74251 -5.45846 36.8338 -13.2788 5.82328 9.61819 -0.917488 -0.984125 0.357263 -3.1037 -1.88987 1.90459 -5.14266 0.678698 9.91315 -13.3731 4.24293 -12.8428 -0.0102846 0.0462048 0.000530889 0.662642 
189.523 103.105 10.0682 -3.04514 -0.559689 -89.5565 -0.995389 0.624631 1.63408 0.188024 8.68867 17.6718 -2.13723 -10.375 -0.00946198 -1.34284e-009 8.7522e-006 -1.47388e-008 1.393 7.37899 -0.0935879 -2.28568 -5.1639 0.348203 37.5314 1.75884 0.0404876 40.9241 -18.3013 4.30798 8.42825 39.0106 7.60551 -11.8413 9.3511 0.305342 -43.4406 3.51614 -3.52634 -28.3621 -13.2371 2.83545 -5.39878 36.7629 -13.3633 5.82328 9.61819 -0.917488 -0.858677 0.501752 -3.12493 -1.92464 1.8819 -5.18272 0.696552 9.95714 -13.3419 4.2461 -12.8474 -0.0102848 0.0462048 0.000530889 0.662642 
189.52 103.104 10.0758 -3.03061 -0.56698 -89.5618 -1.00322 0.594918 1.63403 0.175276 8.7214 17.6732 -2.11495 -10.3969 -0.00946265 -1.34284e-009 8.7522e-006 -1.47388e-008 1.37184 7.37482 -0.0911542 -2.27259 -5.20626 0.348728 37.6043 1.75887 0.0387502 40.8542 -18.1619 4.27742 8.37565 39.1489 7.6808 -11.7256 9.34319 0.453738 -43.4093 3.51254 -3.52298 -28.3898 -13.2693 2.87462 -5.37088 36.8431 -13.3752 5.82328 9.61819 -0.917488 -0.834313 0.543528 -3.12028 -1.9406 1.85548 -5.19564 0.699023 9.98055 -13.3165 4.25761 -12.8656 -0.00978434 0.0462048 0.000530889 0.662642 
189.517 103.103 10.0808 -3.02166 -0.575629 -89.5601 -1.00793 0.569896 1.63788 0.161592 8.75536 17.6622 -2.13305 -10.4242 -0.00946348 -1.34284e-009 8.7522e-006 -1.47388e-008 1.32434 7.34515 -0.0766144 -2.23377 -5.19416 0.352942 37.6811 1.7589 0.0349311 40.7631 -18.1631 4.26281 8.31196 39.453 7.71367 -11.3547 9.34514 0.641049 -43.3744 3.5077 -3.51961 -28.429 -13.3842 2.87056 -5.39343 36.9817 -13.3127 5.82328 9.61819 -0.917488 -0.807443 0.545275 -3.07179 -1.94929 1.84861 -5.19642 0.692968 9.97773 -13.3073 4.27525 -12.9015 -0.00792391 0.0462048 0.000530889 0.662642 
189.515 103.101 10.0866 -3.02286 -0.587148 -89.5477 -1.02521 0.578386 1.62193 0.163529 8.74391 17.6705 -2.13735 -10.421 -0.00946338 -1.34284e-009 8.7522e-006 -1.47388e-008 1.31114 7.33559 -0.0791757 -2.24798 -5.17793 0.355072 37.7624 1.75893 0.0294135 40.7092 -18.2143 4.26719 8.34598 39.5417 7.64766 -11.2108 9.3412 0.771006 -43.3272 3.50267 -3.51699 -28.4614 -13.4934 2.88415 -5.4169 37.0414 -13.2647 5.82328 9.61819 -0.917488 -0.707391 0.597017 -3.07918 -1.9716 1.84918 -5.22128 0.702078 9.99023 -13.2999 4.28713 -12.9099 -0.0063792 0.0462048 0.000530889 0.662642 
189.514 103.099 10.0944 -3.02977 -0.593207 -89.5458 -1.04008 0.588037 1.60733 0.169718 8.74205 17.6908 -2.13399 -10.4158 -0.00946322 -1.34284e-009 8.7522e-006 -1.47388e-008 1.38553 7.37492 -0.0933684 -2.36528 -5.20565 0.360428 37.8294 1.75895 0.0255881 40.7067 -18.3639 4.25611 8.34987 39.73 7.58258 -11.2781 9.32698 0.890218 -43.2476 3.49585 -3.51479 -28.5128 -13.4909 2.92187 -5.40389 37.0177 -13.2824 5.82328 9.61819 -0.917488 -0.682189 0.581783 -3.23301 -1.99397 1.84592 -5.25319 0.717803 10.0168 -13.2899 4.28104 -12.8857 -0.00496138 0.0462048 0.000530889 0.662642 
189.518 103.095 10.1019 -3.03978 -0.591468 -89.5627 -1.04101 0.569118 1.61281 0.166085 8.80228 17.7002 -2.16646 -10.4484 -0.00946421 -1.34284e-009 8.7522e-006 -1.47388e-008 1.50571 7.41351 -0.0953755 -2.51261 -5.20303 0.384894 37.8044 1.75895 0.0262101 40.7733 -18.6658 4.24419 8.26938 40.0424 7.56804 -11.367 9.33922 0.701091 -43.1788 3.49063 -3.51565 -28.5726 -13.4462 2.91476 -5.39969 37.0054 -13.2948 5.82328 9.61819 -0.917488 -0.774096 0.427878 -3.41667 -1.99385 1.85295 -5.25087 0.712764 10.0148 -13.2812 4.26892 -12.8997 -0.00362813 0.0462048 0.000530889 0.662642 
189.527 103.09 10.1081 -3.05978 -0.591289 -89.5797 -1.04674 0.551191 1.61201 0.171487 8.87918 17.7103 -2.23438 -10.4986 -0.00946574 -1.34284e-009 8.7522e-006 -1.47388e-008 1.53398 7.33142 -0.0942717 -2.5138 -4.9832 0.394743 37.67 1.75895 0.0333432 40.904 -18.9434 4.37589 8.31499 39.9844 7.44868 -11.5271 9.39199 0.0297286 -43.2359 3.49939 -3.52449 -28.5529 -13.5389 2.82843 -5.44298 37.0314 -13.2356 5.82328 9.61819 -0.917488 -0.870097 0.201078 -3.45726 -1.99264 1.87378 -5.24141 0.701406 10.0051 -13.254 4.29241 -12.9646 -0.00233513 0.0462048 0.000530889 0.662642 
189.541 103.085 10.1125 -3.09335 -0.600602 -89.5835 -1.07165 0.553538 1.58479 0.194826 8.93575 17.7391 -2.28892 -10.5299 -0.00963647 -1.34284e-009 8.7522e-006 -1.47388e-008 1.39403 7.11494 -0.0907711 -2.29151 -4.52021 0.363123 37.5093 1.75894 0.0481107 41.036 -18.9642 4.71448 8.53496 39.6891 7.19692 -11.7726 9.41438 -0.339538 -43.4617 3.52715 -3.54533 -28.4158 -13.7004 2.70248 -5.46865 37.0084 -13.1977 5.82328 9.61819 -0.917488 -1.12078 -0.23889 -3.46012 -2.02551 1.87276 -5.28245 0.720692 10.0727 -13.1912 4.34525 -13.0098 -0.00103741 0.0462048 0.000530889 0.662642 
189.565 103.075 10.1114 -3.12381 -0.615512 -89.5882 -1.09663 0.522768 1.5608 0.209468 9.03587 17.7695 -2.29865 -10.5609 -0.0107461 -1.34284e-009 8.7522e-006 -1.47388e-008 1.19892 6.94285 -0.071913 -2.00552 -4.07918 0.342564 37.3468 1.75891 0.0641822 41.1345 -18.8128 5.07641 8.62376 39.9517 7.07539 -11.8396 9.34409 0.3872 -43.7302 3.55818 -3.5659 -28.271 -13.6578 2.57175 -5.40458 36.8718 -13.2992 5.82328 9.61819 -0.917488 -1.69073 -1.03856 -3.64463 -2.07391 1.81231 -5.34587 0.756308 10.2392 -13.1226 4.34402 -13.0496 0.00026608 0.0462048 0.000530889 0.662642 
